HIERARCHY
ROOT pelvis
{
	OFFSET -0.427200 90.907800 -3.775500
	CHANNELS 6 Xposition Yposition Zposition Zrotation Yrotation Xrotation
	JOINT left_hip
	{
		OFFSET 7.742500 -7.508700 0.000000
		CHANNELS 3 Zrotation Yrotation Xrotation
		JOINT left_knee
		{
			OFFSET 0.000000 -39.672400 0.000200
			CHANNELS 3 Zrotation Yrotation Xrotation
			JOINT left_ankle
			{
				OFFSET 0.000000 -35.359100 -0.000200
				CHANNELS 3 Zrotation Yrotation Xrotation
				JOINT left_foot
				{
					OFFSET 0.000000 -4.370600 13.002000
					CHANNELS 3 Zrotation Yrotation Xrotation
				}
			}
		}
	}
	JOINT right_hip
	{
		OFFSET -7.742500 -7.508700 0.000000
		CHANNELS 3 Zrotation Yrotation Xrotation
		JOINT right_knee
		{
			OFFSET 0.000000 -39.672500 0.000200
			CHANNELS 3 Zrotation Yrotation Xrotation
			JOINT right_ankle
			{
				OFFSET 0.000000 -35.359100 -0.000200
				CHANNELS 3 Zrotation Yrotation Xrotation
				JOINT right_foot
				{
					OFFSET 0.000000 -4.370600 13.002000
					CHANNELS 3 Zrotation Yrotation Xrotation
				}
			}
		}
	}
	JOINT spine1
	{
		OFFSET 0.000000 9.624100 0.000000
		CHANNELS 3 Zrotation Yrotation Xrotation
		JOINT spine2
		{
			OFFSET 0.036700 9.000400 0.000000
			CHANNELS 3 Zrotation Yrotation Xrotation
			JOINT spine3
			{
				OFFSET -0.007800 8.692800 0.000000
				CHANNELS 3 Zrotation Yrotation Xrotation
				JOINT neck
				{
					OFFSET 0.000200 18.072900 -0.032800
					CHANNELS 3 Zrotation Yrotation Xrotation
					JOINT head
					{
						OFFSET 0.000000 16.045200 0.000000
						CHANNELS 3 Zrotation Yrotation Xrotation
					}
				}
				JOINT left_collar
				{
					OFFSET 4.774100 11.900000 0.000000
					CHANNELS 3 Zrotation Yrotation Xrotation
					JOINT left_shoulder
					{
						OFFSET 9.249900 0.237100 0.056900
						CHANNELS 3 Zrotation Yrotation Xrotation
						JOINT left_elbow
						{
							OFFSET 26.301300 0.000000 0.000000
							CHANNELS 3 Zrotation Yrotation Xrotation
							JOINT left_wrist
							{
								OFFSET 25.282000 0.000000 0.000000
								CHANNELS 3 Zrotation Yrotation Xrotation
								JOINT left_pinky1
								{
									OFFSET 9.086300 0.000000 -3.402300
									CHANNELS 3 Zrotation Yrotation Xrotation
									JOINT left_pinky2
									{
										OFFSET 2.337000 0.000000 0.000000
										CHANNELS 3 Zrotation Yrotation Xrotation
										JOINT left_pinky3
										{
											OFFSET 2.212100 0.000000 0.000000
											CHANNELS 3 Zrotation Yrotation Xrotation
										}
									}
								}
								JOINT left_ring1
								{
									OFFSET 10.747800 0.000000 -1.873100
									CHANNELS 3 Zrotation Yrotation Xrotation
									JOINT left_ring2
									{
										OFFSET 2.798800 0.000000 0.000000
										CHANNELS 3 Zrotation Yrotation Xrotation
										JOINT left_ring3
										{
											OFFSET 2.680100 0.000000 0.000000
											CHANNELS 3 Zrotation Yrotation Xrotation
										}
									}
								}
								JOINT left_middle1
								{
									OFFSET 11.441100 0.000000 0.047900
									CHANNELS 3 Zrotation Yrotation Xrotation
									JOINT left_middle2
									{
										OFFSET 3.013000 0.000000 -0.010200
										CHANNELS 3 Zrotation Yrotation Xrotation
										JOINT left_middle3
										{
											OFFSET 2.843100 0.000000 0.009900
											CHANNELS 3 Zrotation Yrotation Xrotation
										}
									}
								}
								JOINT left_index1
								{
									OFFSET 11.361600 0.000000 2.242500
									CHANNELS 3 Zrotation Yrotation Xrotation
									JOINT left_index2
									{
										OFFSET 2.984200 0.000000 0.000000
										CHANNELS 3 Zrotation Yrotation Xrotation
										JOINT left_index3
										{
											OFFSET 2.804600 0.000000 0.000000
											CHANNELS 3 Zrotation Yrotation Xrotation
										}
									}
								}
								JOINT left_thumb1
								{
									OFFSET 1.565300 -0.011300 2.107800
									CHANNELS 3 Zrotation Yrotation Xrotation
									JOINT left_thumb2
									{
										OFFSET 2.658200 0.097600 3.191300
										CHANNELS 3 Zrotation Yrotation Xrotation
										JOINT left_thumb3
										{
											OFFSET 2.183800 0.000000 2.192100
											CHANNELS 3 Zrotation Yrotation Xrotation
										}
									}
								}
							}
						}
					}
				}
				JOINT right_collar
				{
					OFFSET -4.774100 11.900200 0.000000
					CHANNELS 3 Zrotation Yrotation Xrotation
					JOINT right_shoulder
					{
						OFFSET -9.249900 0.237000 0.056900
						CHANNELS 3 Zrotation Yrotation Xrotation
						JOINT right_elbow
						{
							OFFSET -26.301300 0.000000 0.000000
							CHANNELS 3 Zrotation Yrotation Xrotation
							JOINT right_wrist
							{
								OFFSET -25.282000 0.000000 0.000000
								CHANNELS 3 Zrotation Yrotation Xrotation
								JOINT right_pinky1
								{
									OFFSET -9.086300 0.000000 -3.402300
									CHANNELS 3 Zrotation Yrotation Xrotation
									JOINT right_pinky2
									{
										OFFSET -2.337000 0.000000 0.000000
										CHANNELS 3 Zrotation Yrotation Xrotation
										JOINT right_pinky3
										{
											OFFSET -2.212200 0.000000 0.000000
											CHANNELS 3 Zrotation Yrotation Xrotation
										}
									}
								}
								JOINT right_ring1
								{
									OFFSET -10.747800 0.000000 -1.873100
									CHANNELS 3 Zrotation Yrotation Xrotation
									JOINT right_ring2
									{
										OFFSET -2.798800 0.000000 0.000000
										CHANNELS 3 Zrotation Yrotation Xrotation
										JOINT right_ring3
										{
											OFFSET -2.680100 0.000000 0.000000
											CHANNELS 3 Zrotation Yrotation Xrotation
										}
									}
								}
								JOINT right_middle1
								{
									OFFSET -11.441200 0.000000 0.047900
									CHANNELS 3 Zrotation Yrotation Xrotation
									JOINT right_middle2
									{
										OFFSET -3.013000 0.000000 -0.010200
										CHANNELS 3 Zrotation Yrotation Xrotation
										JOINT right_middle3
										{
											OFFSET -2.843100 0.000000 0.009900
											CHANNELS 3 Zrotation Yrotation Xrotation
										}
									}
								}
								JOINT right_index1
								{
									OFFSET -11.361700 0.000000 2.242500
									CHANNELS 3 Zrotation Yrotation Xrotation
									JOINT right_index2
									{
										OFFSET -2.984200 0.000000 0.000000
										CHANNELS 3 Zrotation Yrotation Xrotation
										JOINT right_index3
										{
											OFFSET -2.804500 0.000000 0.000000
											CHANNELS 3 Zrotation Yrotation Xrotation
										}
									}
								}
								JOINT right_thumb1
								{
									OFFSET -1.565300 -0.011000 2.107800
									CHANNELS 3 Zrotation Yrotation Xrotation
									JOINT right_thumb2
									{
										OFFSET -2.658300 0.097000 3.191300
										CHANNELS 3 Zrotation Yrotation Xrotation
										JOINT right_thumb3
										{
											OFFSET -2.183800 0.000000 2.192100
											CHANNELS 3 Zrotation Yrotation Xrotation
										}
									}
								}
							}
						}
					}
				}
			}
		}
	}
}
MOTION
Frames: 4
Frame Time: 0.008333
-39.862900 71.777200 1.904900 41.893647 -75.909482 9.291642 -13.825475 7.636997 -88.592612 -0.201751 -0.607170 73.633077 -5.766354 -2.964327 -34.032689 0.000000 0.000000 0.000000 -10.150845 -28.203440 -83.267460 -0.030991 -0.093513 73.563366 12.935447 7.141793 -35.335519 0.000000 0.000000 0.000000 12.881199 -4.516356 64.440164 1.169379 8.342651 -1.508911 6.227349 8.975573 -0.704827 -15.922076 -6.357327 8.930814 6.480777 0.856190 -28.799619 3.735997 -10.497272 -5.567764 9.838932 12.025088 -29.044156 0.001579 -82.571969 -0.001405 7.814323 -13.606927 -3.033267 -19.058587 28.358361 -1.888404 -2.612367 -0.000003 0.000000 -6.303682 0.000003 0.000000 0.505523 3.762246 11.596102 -4.187397 0.000003 0.000000 -17.370844 -0.000003 0.000000 -1.448862 4.267241 7.300993 -4.901286 0.000003 0.000000 -10.431116 0.000003 0.000000 -4.121260 -8.030002 8.381043 -8.767347 0.000003 0.000000 -8.964406 0.000003 0.000000 -30.503486 2.201559 23.224729 -12.538111 1.313063 -32.471654 -1.740557 1.267419 21.544299 -24.338781 34.144855 -2.310060 -15.689411 5.536263 -51.894946 -0.000367 30.280014 -0.000103 -2.332358 5.989880 21.742751 35.944325 -14.471165 -11.744815 2.537023 0.000003 0.000000 1.323269 0.000003 0.000000 4.576180 -2.125355 8.868563 1.086782 0.000003 0.000000 12.902053 0.000003 0.000000 3.332732 -4.424392 6.648350 2.498645 0.000003 0.000000 6.433251 0.000003 0.000000 4.762477 2.414707 9.693499 6.883845 0.000003 0.000000 5.279720 0.000003 0.000000 0.360334 5.888504 27.664124 20.646078 -8.641447 -40.091455 -0.880576 9.856782 17.907411
-39.793200 71.673700 1.740600 42.135038 -76.207645 9.014342 -13.711701 7.837385 -88.804538 -0.208272 -0.616218 73.906189 -5.824563 -3.033023 -34.109853 0.000000 0.000000 0.000000 -9.738722 -28.095044 -83.798320 -0.005734 -0.041902 73.618911 13.446448 8.158444 -35.392589 0.000000 0.000000 0.000000 12.730588 -4.576112 64.794500 1.051611 8.184441 -1.541806 6.195361 8.857676 -0.764263 -16.130627 -6.380875 8.746054 6.474812 0.913525 -28.626212 3.692754 -11.123305 -5.544943 9.862200 11.572328 -28.378866 0.001695 -83.304293 -0.001522 7.821496 -13.924857 -3.141917 -19.102686 28.616078 -1.856771 -2.735842 -0.000003 0.000000 -6.512587 0.000002 0.000000 0.478120 3.861294 11.572416 -4.371360 0.000003 0.000000 -17.644802 -0.000003 0.000000 -1.469649 4.266293 7.279931 -5.125098 0.000003 0.000000 -10.689658 0.000002 0.000000 -4.259607 -8.147649 8.408859 -9.032875 0.000003 0.000000 -9.184628 0.000003 0.000000 -30.339479 1.977836 23.196330 -12.623095 1.434597 -32.417215 -1.700412 1.537831 21.637165 -24.571846 34.568010 -2.482187 -15.791068 5.412645 -51.753281 -0.000367 30.527529 -0.000104 -2.165291 6.049039 21.725697 37.033119 -13.816522 -12.206757 2.745896 0.000003 0.000000 1.314534 0.000003 0.000000 4.963367 -2.140789 8.657721 1.124210 0.000003 0.000000 13.022420 0.000003 0.000000 3.516436 -4.425174 6.574643 2.640689 0.000003 0.000000 6.571832 0.000003 0.000000 5.016979 2.333934 9.813088 7.171137 0.000003 0.000000 5.383360 0.000002 0.000000 0.277891 5.692452 27.797409 20.771156 -8.714738 -40.176445 -1.164284 9.827849 17.951419
-39.723900 71.557700 1.560100 42.092326 -76.496576 8.979069 -13.548777 8.085745 -89.038541 -0.216049 -0.626032 74.229639 -5.889687 -3.106248 -34.180331 0.000000 0.000000 0.000000 -9.376901 -27.956271 -84.349659 0.027422 0.026840 73.825592 13.773549 8.767662 -35.124086 0.000000 0.000000 0.000000 12.546594 -4.633997 65.191407 0.903340 8.006758 -1.577512 6.166721 8.719348 -0.840204 -16.306672 -6.463080 8.493584 6.518318 1.037013 -28.518720 3.572418 -11.748073 -5.532034 9.876921 11.181253 -27.594068 0.001778 -83.619201 -0.001606 7.991484 -14.224139 -3.180227 -19.146678 28.873851 -1.825436 -2.859334 -0.000001 0.000000 -6.721517 0.000000 0.000000 0.450627 3.960322 11.548622 -4.555345 0.000003 0.000000 -17.918771 -0.000001 0.000000 -1.490435 4.265329 7.258868 -5.348953 0.000003 0.000000 -10.948212 0.000000 0.000000 -4.398164 -8.265172 8.437270 -9.298419 0.000003 0.000000 -9.404884 0.000003 0.000000 -30.175294 1.754268 23.166657 -12.707861 1.556301 -32.363127 -1.659381 1.808124 21.730435 -24.847391 34.959410 -2.767262 -15.798950 5.431934 -51.538678 -0.000368 30.724531 -0.000105 -2.176958 6.108262 21.746027 38.105522 -13.144658 -12.640380 2.954758 0.000003 0.000000 1.305802 0.000003 0.000000 5.350577 -2.153368 8.446731 1.161639 0.000003 0.000000 13.142787 0.000003 0.000000 3.700134 -4.425486 6.500935 2.782722 0.000003 0.000000 6.710412 0.000003 0.000000 5.271086 2.252111 9.931928 7.458404 0.000003 0.000000 5.486990 0.000000 0.000000 0.194597 5.496800 27.931155 20.896498 -8.787659 -40.261791 -1.447957 9.799348 17.995704
-39.654500 71.441800 1.379600 42.049614 -76.785514 8.943796 -13.385852 8.334109 -89.272547 -0.223826 -0.635846 74.553099 -5.954811 -3.179472 -34.250810 0.000000 0.000000 0.000000 -9.015066 -27.817498 -84.901050 0.060578 0.095583 74.032276 14.100661 9.376949 -34.855576 0.000000 0.000000 0.000000 12.362599 -4.691882 65.588332 0.755069 7.829074 -1.613218 6.138082 8.581018 -0.916145 -16.482719 -6.545286 8.241109 6.561824 1.160501 -28.411228 3.452082 -12.372915 -5.519125 9.891643 10.790160 -26.809122 0.001862 -83.934118 -0.001690 8.161474 -14.523428 -3.218537 -19.190669 29.131628 -1.794100 -2.982828 0.000000 0.000000 -6.930449 -0.000001 0.000000 0.423135 4.059349 11.524828 -4.739332 0.000003 0.000000 -18.192745 0.000000 0.000000 -1.511220 4.264365 7.237805 -5.572813 0.000003 0.000000 -11.206771 -0.000001 0.000000 -4.536721 -8.382696 8.465680 -9.563969 0.000003 0.000000 -9.625144 0.000003 0.000000 -30.011107 1.530697 23.136984 -12.792627 1.678006 -32.309040 -1.618349 2.078423 21.823705 -25.122943 35.350829 -3.052343 -15.806832 5.451223 -51.324072 -0.000368 30.921534 -0.000106 -2.188625 6.167485 21.766356 39.178302 -12.472701 -13.074029 3.163623 0.000003 0.000000 1.297071 0.000003 0.000000 5.737804 -2.165947 8.235738 1.199069 0.000003 0.000000 13.263154 0.000003 0.000000 3.883833 -4.425798 6.427228 2.924757 0.000003 0.000000 6.848994 0.000003 0.000000 5.525198 2.170288 10.050769 7.745677 0.000003 0.000000 5.590620 -0.000001 0.000000 0.111303 5.301147 28.064902 21.021841 -8.860581 -40.347136 -1.731637 9.770846 18.039989
